<svg xmlns="http://www.w3.org/2000/svg" viewBox="0 0 74.21 23.53"><defs><style>.cls-1{fill:#ff911a;}.cls-2{fill:#0a2139;}</style></defs><g id="Layer_2" data-name="Layer 2"><g id="Layer_1-2" data-name="Layer 1"><path class="cls-1" d="M0,0V23.53H23.53V0ZM22.85,22.85H.68V.68H22.85Z"/><path class="cls-1" d="M22,1.51V9.05h-.71a7.1,7.1,0,0,1-5-2.29,7.1,7.1,0,0,1-1.94-5.18V1.51Z"/><path class="cls-1" d="M13.71,4.05,1.51,9V1.51H13.42v0A8.49,8.49,0,0,0,13.71,4.05Z"/><path class="cls-1" d="M15.5,7.29l-14,14V10L14,4.93A8.14,8.14,0,0,0,15.5,7.29Z"/><path class="cls-1" d="M18.47,9.39,13.3,22H2.09L16.16,8A8.06,8.06,0,0,0,18.47,9.39Z"/><path class="cls-1" d="M22,10V22H14.31l5-12.32a8.11,8.11,0,0,0,1.83.28H22Z"/><path class="cls-2" d="M44.53,5.94a6.08,6.08,0,0,0-1.27-.37H43c-.36-.07-.63-.14-.83-.2a1.12,1.12,0,0,1-.49-.3.76.76,0,0,1-.2-.55h0a.72.72,0,0,1,.38-.65A2.17,2.17,0,0,1,43,3.6a3,3,0,0,1,1,.18,3.58,3.58,0,0,1,1,.5L45.57,3a4.68,4.68,0,0,0-.82-.46,5.33,5.33,0,0,0-.88-.29,4.58,4.58,0,0,0-.89-.1,3.92,3.92,0,0,0-1.61.3,2.16,2.16,0,0,0-1,.84A2.5,2.5,0,0,0,40,4.62h0A2.18,2.18,0,0,0,40.38,6a2,2,0,0,0,.91.67A7.57,7.57,0,0,0,42.63,7h.18a4.72,4.72,0,0,1,.76.16,1.14,1.14,0,0,1,.47.27.69.69,0,0,1,.19.51h0a.79.79,0,0,1-.41.71,2.21,2.21,0,0,1-1.16.26,3.77,3.77,0,0,1-1.25-.21,3.52,3.52,0,0,1-1.08-.59l-.7,1.25a3.92,3.92,0,0,0,.86.54,5.07,5.07,0,0,0,1,.34,5.35,5.35,0,0,0,1.13.12,4.33,4.33,0,0,0,1.66-.29,2.29,2.29,0,0,0,1.06-.84,2.33,2.33,0,0,0,.36-1.32h0a2.13,2.13,0,0,0-.35-1.29A1.92,1.92,0,0,0,44.53,5.94Z"/><path class="cls-2" d="M51.23,2.51a3.23,3.23,0,0,0-1.55-.37,3.19,3.19,0,0,0-1.54.37,2.63,2.63,0,0,0-1,1.05,3.27,3.27,0,0,0-.37,1.56V7.4A3.28,3.28,0,0,0,47.1,9a2.6,2.6,0,0,0,1,1,3.08,3.08,0,0,0,1.54.37A3.12,3.12,0,0,0,51.23,10a2.58,2.58,0,0,0,1-1,3.17,3.17,0,0,0,.37-1.57V5.12a3.16,3.16,0,0,0-.37-1.56A2.6,2.6,0,0,0,51.23,2.51Zm-.18,4.93a1.51,1.51,0,0,1-.17.75,1.14,1.14,0,0,1-.48.49,1.4,1.4,0,0,1-.72.18A1.43,1.43,0,0,1,49,8.68a1.14,1.14,0,0,1-.48-.49,1.63,1.63,0,0,1-.17-.75V5.08a1.58,1.58,0,0,1,.17-.74,1.16,1.16,0,0,1,.48-.5,1.42,1.42,0,0,1,.72-.17,1.4,1.4,0,0,1,.72.17,1.16,1.16,0,0,1,.48.5,1.47,1.47,0,0,1,.17.74Z"/><polygon class="cls-2" points="55.65 2.23 54.13 2.23 54.13 10.3 54.8 10.3 55.65 10.3 59.53 10.3 59.53 8.83 55.65 8.83 55.65 2.23"/><path class="cls-2" d="M63.06,2.23,60,10.3h1.64L62.06,9h3l.45,1.3h1.64L64,2.23Zm-.48,5.31,1-2.75,1,2.75Z"/><path class="cls-2" d="M72.81,6.75a2,2,0,0,0,.79-.85,2.78,2.78,0,0,0,.27-1.26,2.83,2.83,0,0,0-.27-1.27,2,2,0,0,0-.79-.85,2.21,2.21,0,0,0-1.17-.3H68.11V10.3h1.52V7.05h.92l1.82,3.25h1.84L72.28,7A1.91,1.91,0,0,0,72.81,6.75ZM69.63,3.69h1.89a.82.82,0,0,1,.42.11.71.71,0,0,1,.27.34,1.12,1.12,0,0,1,.1.5,1.59,1.59,0,0,1-.1.5.83.83,0,0,1-.28.33.7.7,0,0,1-.41.11H69.63Z"/><polygon class="cls-2" points="33.58 15.38 33.03 15.38 33.03 23.45 33.58 23.45 34.55 23.45 38.44 23.45 38.44 21.98 34.55 21.98 34.55 20.17 37.83 20.17 37.83 18.71 34.55 18.71 34.55 16.84 38.44 16.84 38.44 15.38 34.55 15.38 33.58 15.38"/><polygon class="cls-2" points="44.55 21.29 41.69 15.38 39.83 15.38 39.83 23.44 41.28 23.44 41.28 17.63 44.14 23.44 46.01 23.44 46.01 15.38 44.55 15.38 44.55 21.29"/><polygon class="cls-2" points="48.33 15.38 47.78 15.38 47.78 23.45 48.33 23.45 49.3 23.45 53.19 23.45 53.19 21.98 49.3 21.98 49.3 20.17 52.58 20.17 52.58 18.71 49.3 18.71 49.3 16.84 53.19 16.84 53.19 15.38 49.3 15.38 48.33 15.38"/><path class="cls-2" d="M59.28,19.9a2,2,0,0,0,.78-.84,2.73,2.73,0,0,0,.28-1.27,2.7,2.7,0,0,0-.28-1.27,2,2,0,0,0-.78-.85,2.26,2.26,0,0,0-1.17-.3H54.57v8.08H56.1V20.2H57l1.82,3.25h1.84l-1.93-3.33A2,2,0,0,0,59.28,19.9ZM56.1,16.84H58a.69.69,0,0,1,.41.12.71.71,0,0,1,.28.33,1.27,1.27,0,0,1,.1.5,1.31,1.31,0,0,1-.11.5.72.72,0,0,1-.68.45H56.1Z"/><path class="cls-2" d="M64.7,20.4h1.22v.13a1.68,1.68,0,0,1-.16.77,1.26,1.26,0,0,1-.48.49,1.47,1.47,0,0,1-.72.17,1.7,1.7,0,0,1-.73-.16,1.16,1.16,0,0,1-.49-.44,1.36,1.36,0,0,1-.17-.67V18.31a1.63,1.63,0,0,1,.17-.75,1.18,1.18,0,0,1,.48-.51,1.36,1.36,0,0,1,.71-.18,1.61,1.61,0,0,1,.53.1,1.18,1.18,0,0,1,.73.72h1.64a3.11,3.11,0,0,0-.55-1.26,2.78,2.78,0,0,0-1-.84,3.12,3.12,0,0,0-1.33-.29,3.05,3.05,0,0,0-1.54.37,2.51,2.51,0,0,0-1,1.06,3.32,3.32,0,0,0-.37,1.58v2.38A3,3,0,0,0,62,22.18a2.6,2.6,0,0,0,1,1,3.34,3.34,0,0,0,1.55.35,3.12,3.12,0,0,0,1.55-.37,2.6,2.6,0,0,0,1-1.06,3.28,3.28,0,0,0,.37-1.59V18.94H64.7Z"/><polygon class="cls-2" points="72.62 15.38 71.08 18.85 69.53 15.38 67.94 15.38 70.32 20.34 70.32 23.45 71.84 23.45 71.84 20.34 74.21 15.38 72.62 15.38"/></g></g></svg>