<svg xmlns="http://www.w3.org/2000/svg" viewBox="0 0 31.44 31.44"><defs><style>.cls-1{fill:#ff911a;}</style></defs><g id="Layer_2" data-name="Layer 2"><g id="Layer_1-2" data-name="Layer 1"><path class="cls-1" d="M0,0V31.44H31.44V0ZM30.53,30.53H.91V.91H30.53Z"/><path class="cls-1" d="M29.43,2V12.09h-.95A9.55,9.55,0,0,1,21.77,9a9.54,9.54,0,0,1-2.58-6.93V2Z"/><path class="cls-1" d="M18.32,5.41,2,12.05V2H17.94v0A10.78,10.78,0,0,0,18.32,5.41Z"/><path class="cls-1" d="M20.71,9.73,2,28.43v-15L18.73,6.59A10.81,10.81,0,0,0,20.71,9.73Z"/><path class="cls-1" d="M24.68,12.55,17.77,29.43h-15L21.6,10.62A10.57,10.57,0,0,0,24.68,12.55Z"/><path class="cls-1" d="M29.43,13.33v16.1H19.12L25.87,13a10.52,10.52,0,0,0,2.44.38h.43Z"/></g></g></svg>