<svg xmlns="http://www.w3.org/2000/svg" viewBox="0 0 72.29 77.37"><defs><style>.cls-1{fill:#ff911a;}.cls-2{fill:#0a2139;}</style></defs><g id="Layer_2" data-name="Layer 2"><g id="Layer_1-2" data-name="Layer 1"><path class="cls-1" d="M20.43,0V31.44H51.87V0ZM51,30.53H21.34V.91H51Z"/><path class="cls-1" d="M49.85,2V12.09h-1A9.55,9.55,0,0,1,42.2,9a9.54,9.54,0,0,1-2.58-6.93V2Z"/><path class="cls-1" d="M38.75,5.41,22.44,12.05V2H38.36v0A10.5,10.5,0,0,0,38.75,5.41Z"/><path class="cls-1" d="M41.14,9.73l-18.7,18.7v-15L39.16,6.59A10.81,10.81,0,0,0,41.14,9.73Z"/><path class="cls-1" d="M45.11,12.55,38.19,29.43h-15L42,10.62A10.62,10.62,0,0,0,45.11,12.55Z"/><path class="cls-1" d="M49.85,13.33v16.1H39.55L46.3,13a10.44,10.44,0,0,0,2.44.38h.43Z"/><path class="cls-2" d="M20.19,49.5a12.15,12.15,0,0,0-2.25-.64l-.11,0-.11,0h-.08l-.08,0a13.59,13.59,0,0,1-1.45-.35,2,2,0,0,1-.86-.52,1.29,1.29,0,0,1-.36-1h0a1.27,1.27,0,0,1,.68-1.13,3.7,3.7,0,0,1,1.9-.41,5.19,5.19,0,0,1,1.71.32,7.26,7.26,0,0,1,1.71.87L22,44.32a8.9,8.9,0,0,0-1.45-.8A7.78,7.78,0,0,0,19,43a7.58,7.58,0,0,0-4.38.33,3.87,3.87,0,0,0-1.78,1.49,4.31,4.31,0,0,0-.61,2.35h0a3.8,3.8,0,0,0,.65,2.39,3.47,3.47,0,0,0,1.59,1.18,13.36,13.36,0,0,0,2.35.56l.22,0h.1a8.65,8.65,0,0,1,1.33.28,1.86,1.86,0,0,1,.84.49,1.23,1.23,0,0,1,.32.89h0a1.38,1.38,0,0,1-.72,1.25,3.84,3.84,0,0,1-2,.45,6.86,6.86,0,0,1-2.2-.37,6,6,0,0,1-1.89-1l-1.24,2.21a6.89,6.89,0,0,0,1.53.94,7.78,7.78,0,0,0,1.82.6,9.38,9.38,0,0,0,2,.21,7.52,7.52,0,0,0,2.92-.51,4,4,0,0,0,1.85-1.47A4.13,4.13,0,0,0,22.3,53v0a3.73,3.73,0,0,0-.61-2.27A3.44,3.44,0,0,0,20.19,49.5Z"/><path class="cls-2" d="M31.94,43.49a6,6,0,0,0-5.43,0,4.43,4.43,0,0,0-1.81,1.83,5.63,5.63,0,0,0-.65,2.74v4a5.63,5.63,0,0,0,.65,2.74,4.43,4.43,0,0,0,1.81,1.83,6,6,0,0,0,5.43,0,4.52,4.52,0,0,0,1.82-1.83,5.74,5.74,0,0,0,.64-2.74v-4a5.74,5.74,0,0,0-.64-2.74A4.52,4.52,0,0,0,31.94,43.49Zm-.31,8.66a2.74,2.74,0,0,1-.3,1.3,2,2,0,0,1-.84.87,2.74,2.74,0,0,1-2.53,0,2,2,0,0,1-.84-.87,2.74,2.74,0,0,1-.3-1.3V48a2.75,2.75,0,0,1,.3-1.31,2,2,0,0,1,.84-.87,2.74,2.74,0,0,1,2.53,0,2,2,0,0,1,.84.87,2.75,2.75,0,0,1,.3,1.31Z"/><polygon class="cls-2" points="39.7 42.99 37.03 42.99 37.03 57.15 38.22 57.15 39.7 57.15 46.52 57.15 46.52 54.58 39.7 54.58 39.7 42.99"/><path class="cls-2" d="M52.71,43,47.3,57.15h2.87l.8-2.27h5.18l.8,2.27h2.87L54.41,43Zm-.84,9.32,1.69-4.83,1.69,4.83Z"/><path class="cls-2" d="M69.83,50.93a3.49,3.49,0,0,0,1.38-1.49,5.3,5.3,0,0,0,0-4.45,3.53,3.53,0,0,0-1.37-1.49A4,4,0,0,0,67.78,43h-6.2V57.15h2.67v-5.7h1.62l3.19,5.7h3.23l-3.38-5.84A3.57,3.57,0,0,0,69.83,50.93Zm-5.58-5.38h3.32a1.35,1.35,0,0,1,.73.2,1.34,1.34,0,0,1,.48.59,2.16,2.16,0,0,1,.17.88,2,2,0,0,1-.18.87,1.29,1.29,0,0,1-.48.59,1.34,1.34,0,0,1-.72.2H64.25Z"/><polygon class="cls-2" points="0.96 63.06 0 63.06 0 77.23 0.96 77.23 2.67 77.23 9.49 77.23 9.49 74.66 2.67 74.66 2.67 71.48 8.42 71.48 8.42 68.91 2.67 68.91 2.67 65.63 9.49 65.63 9.49 63.06 2.67 63.06 0.96 63.06"/><polygon class="cls-2" points="20.22 73.43 15.19 63.06 11.92 63.06 11.92 77.22 14.48 77.22 14.48 67.01 19.49 77.22 22.78 77.22 22.78 63.06 20.22 63.06 20.22 73.43"/><polygon class="cls-2" points="26.86 63.06 25.89 63.06 25.89 77.23 26.86 77.23 28.56 77.23 35.38 77.23 35.38 74.66 28.56 74.66 28.56 71.48 34.31 71.48 34.31 68.91 28.56 68.91 28.56 65.63 35.38 65.63 35.38 63.06 28.56 63.06 26.86 63.06"/><path class="cls-2" d="M46.07,71a3.47,3.47,0,0,0,1.38-1.48,5.32,5.32,0,0,0,0-4.46,3.5,3.5,0,0,0-1.37-1.48A4,4,0,0,0,44,63.05h-6.2V77.23h2.67v-5.7h1.62l3.19,5.7h3.23l-3.38-5.84A3.75,3.75,0,0,0,46.07,71Zm-5.58-5.38h3.32a1.28,1.28,0,0,1,.73.21,1.31,1.31,0,0,1,.48.58,2.23,2.23,0,0,1,.17.88,2.42,2.42,0,0,1-.18.88,1.28,1.28,0,0,1-1.2.79H40.49Z"/><path class="cls-2" d="M55.6,71.88h2.14v.23a2.94,2.94,0,0,1-.29,1.34,2.11,2.11,0,0,1-.84.86,2.55,2.55,0,0,1-1.26.3,2.77,2.77,0,0,1-1.28-.28,2,2,0,0,1-.86-.78,2.21,2.21,0,0,1-.3-1.17V68.21a3,3,0,0,1,.29-1.33A2.19,2.19,0,0,1,54,66a2.54,2.54,0,0,1,1.25-.31,2.7,2.7,0,0,1,.94.17,2.22,2.22,0,0,1,.79.5,1.91,1.91,0,0,1,.49.77h2.88a5.46,5.46,0,0,0-1-2.21,4.82,4.82,0,0,0-1.79-1.47,5.22,5.22,0,0,0-2.34-.52,5.48,5.48,0,0,0-2.7.65,4.51,4.51,0,0,0-1.81,1.86,5.76,5.76,0,0,0-.64,2.78v4.17A5.23,5.23,0,0,0,50.79,75a4.39,4.39,0,0,0,1.83,1.74,5.72,5.72,0,0,0,2.73.62,5.52,5.52,0,0,0,2.71-.65,4.53,4.53,0,0,0,1.81-1.87,5.88,5.88,0,0,0,.64-2.78V69.31H55.6Z"/><polygon class="cls-2" points="69.5 63.06 66.79 69.16 64.08 63.06 61.28 63.06 65.45 71.76 65.45 77.23 68.12 77.23 68.12 71.76 72.29 63.06 69.5 63.06"/></g></g></svg>